<svg width="166" height="154" xmlns="http://www.w3.org/2000/svg"><g fill="none" fill-rule="evenodd"><path d="M22.62 138.814v-6.486a6.91 6.91 0 0 1 6.91-6.91h73.156m1.98 26.342H3.643v-6.283c0-3.688 4.605-6.663 10.298-6.663H90.6M94.732 33.61l-44.57 19.74 4.936 11.14 44.57-19.734" stroke="#FFF" stroke-width="3" stroke-linecap="round" stroke-linejoin="round"/><path d="M95.285 40.029c-2.226-5.032.047-10.916 5.078-13.144L155.69 2.387a.959.959 0 0 1 1.23.486l7.075 15.984a1.494 1.494 0 0 1-.762 1.973l-54.806 24.277c-5.031 2.226-10.915-.047-13.143-5.078zM36.424 100.33L11.077 43.079l28.882-12.787 25.347 57.253z" stroke="#FFF" stroke-width="3" stroke-linecap="round" stroke-linejoin="round"/><path fill="#9F856A" d="M17.193 45.445l11.293-4.968 21.596 48.775-11.293 4.961z"/><path d="M36.093 112.163l-4.32-9.758 38.224-16.923 4.32 9.759a1.998 1.998 0 0 1-1.05 2.636l-34.538 15.29a1.998 1.998 0 0 1-2.636-1.004zm4.204-93.703l4.32 9.76L6.392 45.141l-4.32-9.759a1.998 1.998 0 0 1 1.018-2.635l34.56-15.3a1.998 1.998 0 0 1 2.647 1.013zm64.369 133.3h39.473a4.303 4.303 0 0 0 3.56-1.905l.153-.228a10.635 10.635 0 0 0 1.777-5.883v-1.777a10.555 10.555 0 0 0-3.234-7.629c-2.803-2.693-7.18-6.184-12.098-7.506h-18.91c-4.918 1.328-9.295 4.813-12.098 7.506a10.568 10.568 0 0 0-3.234 7.635v1.777m17.835-5.939h30.903m-14.496-10.979v-9.504h-19.1v9.498m17.975-17.422c.628-.435 1.21-.931 1.74-1.482a51.819 51.819 0 0 1 2.748-2.674c3.688-3.35 4.96-3.553 7.438-5.687 4.863-4.18 7.02-9.436 7.992-11.889a34.623 34.623 0 0 0 1.887-6.178l-5.176 1.383 2.785-4.598a29.404 29.404 0 0 0 4.02-11.588c.824-6.726 0-9.627.615-13.71.45-3.24 1.845-7.715 6.037-12.823-6.436 4.026-16.192 11.563-22.881 24.197-11.188 21.086-8.311 44.92-7.205 45.049z" stroke="#FFF" stroke-width="3" stroke-linecap="round" stroke-linejoin="round"/><path stroke="#FFF" stroke-width="3" stroke-linecap="round" stroke-linejoin="round" d="M130.486 116.848l2.944-8.219 6.4-17.852"/></g></svg>