<svg width="121" height="153" xmlns="http://www.w3.org/2000/svg"><g fill="none" fill-rule="evenodd"><path d="M116.7 74.689c-3.725 24.676-14.09 54.098-43.155 72.872a23.766 23.766 0 0 1-12.91 3.88c-10.23 0-19.727-7.728-26.668-14.607a95.342 95.342 0 0 1-17.778-24.72C10.2 100.257 6.69 87.624 4.705 74.69h10.45c3.69 21.952 13.212 47.336 37.925 63.35a13.654 13.654 0 0 0 15.074 0c24.934-16.137 34.383-41.305 37.998-63.32l10.549-.03z" fill="#9F856A"/><path d="M51.543 63.525a8.207 8.207 0 0 0-8.213 8.207v8.342a18.94 18.94 0 0 0 .436 4.076 18.148 18.148 0 0 0 4.095 8.219 15.203 15.203 0 0 0 11.459 5.373h5.2c8.828 0 15.984-7.924 15.984-17.68v-8.33a8.207 8.207 0 0 0-8.213-8.207H51.543zm15.344-8.091a6.566 6.566 0 0 0-10.137 0 9.836 9.836 0 0 0-2.176 3.83" stroke="#FFF" stroke-width="3" stroke-linecap="round" stroke-linejoin="round"/><path d="M48.568 63.525c-.615-8.65 5.643-16.082 13.254-16.082 7.61 0 13.875 7.426 13.254 16.082M66.943 78.07l-1.55 3.307.074 4.014a3.566 3.566 0 0 1-2.828 3.634c-.141 0-.289.043-.436.055-.316.02-.634.005-.947-.043a3.572 3.572 0 0 1-2.908-3.689c0-1.328.068-2.655.099-3.983l-1.55-3.32c-1.696-3.615.8-7.943 4.796-8.029h.356c4.04.062 6.603 4.39 4.894 8.054z" stroke="#FFF" stroke-width="3" stroke-linecap="round" stroke-linejoin="round"/><path d="M26.363 128.154C2.867 98.394 2.498 59.03 2.338 42.168l-.03-3.393 1.745-2.834C7.416 30.475 25.877 3.23 59.307 2.326h1.586c17.945 0 31.882 7.949 41.404 16.02m16.573 19.31v3.485c-.134 23.195-.46 77.46-45.306 106.439a23.453 23.453 0 0 1-25.82 0" stroke="#FFF" stroke-width="3" stroke-linecap="round" stroke-linejoin="round"/><path d="M108.45 41.05c-.134 22.266-.399 71.188-40.29 96.989a13.623 13.623 0 0 1-15.068 0C13.785 112.613 12.942 63.37 12.74 42.057c1.653-2.68 17.735-27.848 46.82-28.604 30.08-.787 47.372 25.23 48.89 27.596z" stroke="#FFF" stroke-width="3" stroke-linecap="round" stroke-linejoin="round"/></g></svg>