<svg width="96" height="104" xmlns="http://www.w3.org/2000/svg"><g transform="translate(2 2)" fill="none" fill-rule="evenodd"><path stroke="#7B909E" stroke-width="3" stroke-linecap="round" stroke-linejoin="round" d="M80.427 17.832h11.945v59.766H.195V17.832h54.908"/><path stroke="#7B909E" stroke-width="3" stroke-linecap="round" stroke-linejoin="round" d="M80.2 23.254h6.762v48.914H5.597V23.254h49.506m-18.597 54.34v12.52m4.239-.001H20.392c-5.194 0-9.404 4.226-9.404 9.438m42.08-9.438H69.5c5.193 0 9.404 4.226 9.404 9.438M53.068 77.594v12.52"/><path stroke="#7B909E" stroke-width="3" stroke-linecap="round" stroke-linejoin="round" d="M70.536 45.18v5.683h-50.83V40.598h39.636"/><path fill="#9F856A" d="M21.851 42.703h46.497v6.316H21.851z"/><path d="M10.988 99.55h37.078m30.839 0h-21.19m.705-80.917v4.601c0 .504.56.914 1.253.914H76.02c.693 0 1.258-.39 1.258-.914v-5.656c0-.508-.565-.918-1.258-.918H59.673c-.693 0-1.253.39-1.253.918v1.055zm7.31-1.988v-3.149m4.946 3.149v-3.149M75.787.195c3.654 0 6.617 2.973 6.617 6.64 0 3.668-2.963 6.642-6.617 6.642s-6.617-2.974-6.617-6.641" stroke="#7B909E" stroke-width="3" stroke-linecap="round" stroke-linejoin="round"/><ellipse stroke="#7B909E" stroke-width="3" stroke-linecap="round" stroke-linejoin="round" cx="75.787" cy="6.848" rx="2.674" ry="2.684"/><path d="M75.787.195H63.682c-2.795 0-5.06 2.274-5.06 5.078v8.204H75.79" stroke="#7B909E" stroke-width="3" stroke-linecap="round" stroke-linejoin="round"/></g></svg>