<svg width="112" height="103" xmlns="http://www.w3.org/2000/svg"><g fill="none" fill-rule="evenodd"><path d="M69.395 97.74v-1.883c0-1.102.89-1.996 1.99-1.996h18.322c1.098 0 1.99.894 1.99 1.996v1.882m-24.803.001h27.303c1.638 0 2.966.84 2.966 1.924v1.815m-10.334 0h-22.9m26.234-34.13L77.324 73.05l1.424 3.219 12.835-5.702" stroke="#7B909E" stroke-width="3" stroke-linecap="round" stroke-linejoin="round"/><path d="M90.322 69.202a2.877 2.877 0 0 1 1.462-3.782l15.918-7.075a.276.276 0 0 1 .364.138l2.036 4.622a.421.421 0 0 1-.218.567l-15.787 7.013a2.866 2.866 0 0 1-3.775-1.483zM73.377 86.625l-7.3-16.54 8.316-3.693 7.3 16.54z" stroke="#7B909E" stroke-width="3" stroke-linecap="round" stroke-linejoin="round"/><path d="M72.955 89.308l-.927-2.101 11-4.886.928 2.102a1.367 1.367 0 0 1-.694 1.801l-8.51 3.78a1.36 1.36 0 0 1-1.797-.696zm1.842-25.618l.928 2.102-10.993 4.882-.928-2.101a1.367 1.367 0 0 1 .694-1.802L73 62.995a1.36 1.36 0 0 1 1.796.696zM19.422 79.202H32.57v12.353H15.275V79.202z" stroke="#7B909E" stroke-width="3" stroke-linecap="round" stroke-linejoin="round"/><path fill="#9F856A" d="M17.654 81.588h12.537v7.584H17.654z"/><path d="M54.248 60.34a1.99 1.99 0 0 0-.838-1.979l-1.868-1.26a3.051 3.051 0 0 0-4.047.517 3.1 3.1 0 0 0-.657 1.462 3.01 3.01 0 0 0 .953 2.76 2.988 2.988 0 0 0 2.842.643m4.817-6.336a27.196 27.196 0 0 0 9.245-15.445c.36-1.807 1.973-15.908 1.378-17.505a15.927 15.927 0 0 1-4.922 2.87c-4.528 1.639-11.612 1.765-16.5-1.832-.892-.664-3.875-3.038-6.585-3.6a5.943 5.943 0 0 0-2.723.054c-.753.13-1.444.5-1.968 1.059a3.868 3.868 0 0 0-.759 1.937 6.322 6.322 0 0 0 0 2.176c.255 2.843.521 5.681.8 8.513l.495 3.29s.146 1.231.507 3.038a27.179 27.179 0 0 0 9.249 15.445m-5.357 6.576V50.176m22.263 5.606v-5.156M49.648 69.55l-12.503-7.529h0l3.476 17.067zm12.5-7.529l-2.844 17.067-9.656-9.538 12.5-7.529" stroke="#7B909E" stroke-width="3" stroke-linecap="round" stroke-linejoin="round"/><path d="M37.145 62.084l-20.668 2.139c-3.523.365-6.702 2.65-7.741 6.046l-6.527 31.21h61.72" stroke="#7B909E" stroke-width="3" stroke-linecap="round" stroke-linejoin="round"/><path stroke="#7B909E" stroke-width="3" stroke-linecap="round" stroke-linejoin="round" d="M44.802 74.861l1.5 3.198h6.702l1.742-3.198M43.399 92.697L46.3 78.06h6.703l2.894 14.638m13.431-47.421l-.629 3.807c-1.15 6.964-7.443 11.872-14.455 11.273m19.687-27.395l-1.047 9.336c-.201 1.811-1.63 3.135-3.188 2.941-1.558-.176-2.655-1.785-2.454-3.592l.682-6.034c.202-1.81 1.63-3.134 3.188-2.94l2.82.29zm-48.649 0l1.047 9.336c.201 1.811 1.63 3.135 3.188 2.941 1.558-.176 2.655-1.785 2.454-3.592l-.678-6.034c-.205-1.81-1.63-3.134-3.188-2.94l-2.823.29z"/><path d="M25.877 32.9l-.356-2.724c-1.056-7.95 1.612-16.042 7.502-21.453a24.556 24.556 0 0 1 22.372-5.814 24.635 24.635 0 0 1 17.313 15.356 24.587 24.587 0 0 1 1.257 11.126l-.377 3.538" stroke="#7B909E" stroke-width="3" stroke-linecap="round" stroke-linejoin="round"/><path d="M64.041 9.836a19.253 19.253 0 0 0-8.005-4.508c-5.621-1.509-12.147-.231-12.147-.231-.352.105-.7.218-1.035.336-8.83 3.038-14.61 11.563-14.61 20.937v2.201s1.172-.596 1.964 1.093l.075-5.412a6.397 6.397 0 0 1 5.576-6.302h.146s2.514-1.005 8.055 2.752c5.42 3.689 12.35 4.508 18.297 1.764a30.702 30.702 0 0 0 1.852-.937s4.31-3.084 3.569 5.517l-.398 4.059s1.14-1.588 2.798-1.059a20.687 20.687 0 0 0-6.137-20.168v-.042z" fill="#9F856A"/></g></svg>