<svg width="106" height="104" xmlns="http://www.w3.org/2000/svg"><g fill="none" fill-rule="evenodd"><path d="M89.996 79.484c4.406 1.172 8.328 4.329 10.828 6.735a9.375 9.375 0 0 1 2.844 6.765v1.594a9.48 9.48 0 0 1-1.59 5.254l-.41.606a2.875 2.875 0 0 1-2.398 1.285H64.324a3.758 3.758 0 0 1-3.125-1.676l-.152-.223a9.477 9.477 0 0 1-1.59-5.246v-1.586a9.375 9.375 0 0 1 2.844-6.762c2.5-2.41 6.422-5.55 10.832-6.734l16.863-.012z" stroke="#7B909E" stroke-width="3" stroke-linecap="round" stroke-linejoin="round"/><path d="M101.219 92.984v1.594a6.992 6.992 0 0 1-1.172 3.906l-.39.61a.441.441 0 0 1-.36.191H64.32c-.433 0-.838-.217-1.078-.578l-.152-.227a1.77 1.77 0 0 1 1.476-2.734s15.743-.043 22.496-.11a4.453 4.453 0 0 0 4.391-3.613c.03-.15.048-.303.05-.457v-1.402a6.152 6.152 0 0 0-1.847-4.41c-.39-.36-.781-.742-1.234-1.129a1.531 1.531 0 0 1 1.016-2.684c.158 0 .316.022.468.067 3.688 1.172 7.031 3.863 9.23 5.976a6.957 6.957 0 0 1 2.083 5z" fill="#9F856A"/><path stroke="#7B909E" stroke-width="3" stroke-linecap="round" stroke-linejoin="round" d="M73.133 79.488v-8.472h17.031v8.464m0-8.464l7.246-7.778m-23.824.582l-.332-.492a46.134 46.134 0 0 0-3.106-3.09c-3.293-2.984-4.421-3.168-6.64-5.078-4.34-3.73-6.25-8.414-7.156-10.605a30.95 30.95 0 0 1-1.68-5.512l4.621 1.238-2.422-3.996a26.266 26.266 0 0 1-3.633-10.355v-.082c-.734-6 0-8.594-.523-12.227-.39-2.887-1.63-6.879-5.387-11.434 5.742 3.59 14.453 10.313 20.41 21.579 9.946 18.812 6.817 39.953 5.848 40.054z"/><path stroke="#7B909E" stroke-width="3" stroke-linecap="round" stroke-linejoin="round" d="M76.531 70.586l-2.629-7.332-3.894-10.867M64.477 9.398h13.152a7.21 7.21 0 0 1 7.215 7.211v48.493m-62.75-43.805H2.254c-.094-.89-.379-4.668 2.21-7.969 2.466-3.125 6.614-4.625 10.774-3.941h31.438"/><path d="M54.79 88.02H43.522v3.515c0 5.352-4.117 9.985-9.457 10.156h-.78c-.255 0-.571-.027-.849-.066-4.945-.59-8.527-5.02-8.527-10V34.273c1.781-23.796-8.672-24.875-8.672-24.875m76.486 92.462H34.066M29.71 25.568h14.892M29.71 37.27h16.966M29.71 49.091h23.028M29.71 62.576h32.544M29.71 78.243h27.786" stroke="#7B909E" stroke-width="3" stroke-linecap="round" stroke-linejoin="round"/></g></svg>