<svg width="118" height="104" xmlns="http://www.w3.org/2000/svg"><g transform="translate(2 2)" fill="none" fill-rule="evenodd"><path d="M.223 69.436v28.297c0 1.105.898 2 2.006 2h27.983a2.003 2.003 0 0 0 1.997-2V69.436H.223z" fill="#AD8769"/><rect stroke="#7B909E" stroke-width="3" stroke-linecap="round" stroke-linejoin="round" x=".223" y="42.311" width="31.991" height="57.422" rx="3"/><path d="M32.213 49.24h5.915a8.193 8.193 0 0 0 6.94-3.867c10.756-17.333 16.44-20.089 21-22.617 2.794-1.547 5.112-5.334 6.587-8.28a22.347 22.347 0 0 0 1.952-6.667c.647-4.498 2.742-6.396 4.645-7.173A6.409 6.409 0 0 1 84.547 1a13.596 13.596 0 0 1 5.608 4.96c4.038 6.618 1.573 17.364-6.976 26.111a3.994 3.994 0 0 0-1.163 2.782 3.95 3.95 0 0 0 1.158 2.803 3.973 3.973 0 0 0 2.809 1.162h19.21c4.636.693 8.283 4.146 9.05 8.489 1.011 5.63-3.402 9.56-3.62 9.742.29.204 3.414 2.404 3.436 6.324a7.802 7.802 0 0 1-4.341 6.991 8.248 8.248 0 0 1 1.636 8.17c-1.44 4.062-5.487 5.16-5.795 5.244.183.204 2.621 3.075 1.623 6.666a7.355 7.355 0 0 1-6.512 5.227H45.465a12 12 0 0 1-8.215-3.227h-5.037m78.767-35.715h-7.248m6.498 13.209h-8.13m4.066 13.773H99.15M22.425 54.422a6.187 6.187 0 0 1-3.054 5.5 6.225 6.225 0 0 1-6.305 0 6.187 6.187 0 0 1-3.055-5.5" stroke="#7B909E" stroke-width="3" stroke-linecap="round" stroke-linejoin="round"/></g></svg>