<svg width="70" height="71" xmlns="http://www.w3.org/2000/svg"><g fill="none" fill-rule="evenodd"><path fill="#3A4E5D" d="M22.133 49.06v-5.544h2.936v.544h-2.372v5zm21.891-.005h-.619v-5.539h.62v4.432l2.462-4.432h.614v5.54h-.614v-4.432z"/><path fill="#9F856A" d="M0 34.02h30.095v2.19H0zm39.694 0h30.095v2.19H39.694zm-5.893 5.881h2.191v30.6h-2.191zm0-39.901h2.191v30.364h-2.191z"/><path fill="#3A4E5D" d="M23.865 26.079h1.879v-5.006h.564v5.54h-5.439v-5.54h.57v5.006h1.873v-5.006h.553z"/><path d="M43.4 26.612l1.541-5.539h.67l1.51 5.54h-.629l-.443-1.708h-1.602l-.463 1.707H43.4zm2.518-2.25l-.645-2.422-.695 2.422h1.34z" fill="#3A4E5D" fill-rule="nonzero"/></g></svg>