<svg width="136" height="104" xmlns="http://www.w3.org/2000/svg"><g fill="none" fill-rule="evenodd"><path d="M74.305 96.58v-2.735c0-1.6 1.297-2.897 2.897-2.897h26.665c1.6 0 2.897 1.298 2.897 2.897v2.73" stroke="#7B909E" stroke-width="3" stroke-linecap="round" stroke-linejoin="round"/><path d="M99.682 102h-33.33v-2.63c0-1.546 1.931-2.795 4.318-2.795h39.733c2.387 0 4.318 1.249 4.318 2.794V102m-10.189-49.515L85.85 60.76l2.068 4.67 18.683-8.275" stroke="#7B909E" stroke-width="3" stroke-linecap="round" stroke-linejoin="round"/><path d="M104.764 55.176a4.176 4.176 0 0 1 2.124-5.51l23.176-10.267a.4.4 0 0 1 .528.206l2.966 6.695a.63.63 0 0 1-.322.829l-22.978 10.176a4.176 4.176 0 0 1-5.494-2.129zM80.1 80.454L69.474 56.456l12.103-5.359 10.624 23.998z" stroke="#7B909E" stroke-width="3" stroke-linecap="round" stroke-linejoin="round"/><path fill="#AD8769" d="M72.236 57.524l4.876-2.078 8.927 20.16-4.88 2.076z"/><path d="M79.732 84.898l-1.586-3.583 16.008-7.087 1.586 3.583a1.395 1.395 0 0 1-.71 1.84L81.572 85.61a1.395 1.395 0 0 1-1.84-.711zm2.202-38.25l1.59 3.59-16.008 7.088-1.586-3.583a1.395 1.395 0 0 1 .71-1.84l13.458-5.958a1.395 1.395 0 0 1 1.84.71l-.004-.007zM61.442 75.159V11.395m6.352 33.768v-29.27m-5.391 79.098h-35.3c1.313-1.78 12.069-15.82 31.069-18.54M74.34 2.215a9.712 9.712 0 0 1-4.138 7.94M61.438 11.4A9.742 9.742 0 0 1 54.9 2.214" stroke="#7B909E" stroke-width="3" stroke-linecap="round" stroke-linejoin="round"/><path d="M125.605 37.24L108.313 6.378 74.34 2.215h-4.614a5.107 5.107 0 0 1-10.214 0H54.9L20.026 6.378 2.215 49.687h26.67" stroke="#7B909E" stroke-width="3" stroke-linecap="round" stroke-linejoin="round"/><path d="M35.322 54.382h5.365a7.725 7.725 0 0 1-7.726 7.725H9.948a7.725 7.725 0 0 1-7.725-7.725h33.099z" fill="#AD8769"/><path d="M59.695 101.76H18.494a7.48 7.48 0 0 1-7.481-7.485h5.901m3.112-87.897l20.66 43.309M5.408 65.773h33.437m69.468-59.395L89.378 45.974M55.738 6.863L29.09 10.206m70.704 0l-26.64-3.339" stroke="#7B909E" stroke-width="3" stroke-linecap="round" stroke-linejoin="round"/></g></svg>