<svg width="435" height="173" xmlns="http://www.w3.org/2000/svg"><g fill="none" fill-rule="evenodd"><path fill="#3A4E5D" d="M54.006 120.233v-13.587h7.164v1.333h-5.787v12.254zm53.417-.013h-1.512v-13.574h1.512v10.86l6.009-10.86h1.499v13.574h-1.5v-10.86z"/><path fill="#9F856A" d="M0 83.372h73.434v5.368H0zm96.855 0h73.434v5.368H96.855zM82.478 97.786h5.345v74.993h-5.345zm0-97.786h5.345v74.413h-5.345z"/><path fill="#3A4E5D" d="M58.233 63.911h4.584V51.645h1.376v13.574H50.922V51.645h1.389V63.91h4.57V51.645h1.352z"/><path d="M105.9 65.22l3.76-13.575h1.634l3.686 13.574h-1.536l-1.081-4.183h-3.908l-1.13 4.183h-1.426zm6.143-5.517l-1.573-5.936-1.695 5.936h3.268zm101.316 11.871v9.083h-2.003V61.369h2.027v8.293h3.404a11.346 11.346 0 0 1 2.126-5.911 6.772 6.772 0 0 1 5.782-2.706 6.779 6.779 0 0 1 5.462 3.31 13.91 13.91 0 0 1 0 13.575 6.716 6.716 0 0 1-5.697 3.31 6.715 6.715 0 0 1-5.78-3.162 12.7 12.7 0 0 1-1.966-6.528l-3.355.024zm5.382-.431c-.05 1.863.369 3.71 1.217 5.368a4.767 4.767 0 0 0 4.331 2.787 4.767 4.767 0 0 0 4.332-2.787 12.512 12.512 0 0 0 0-10.761 4.779 4.779 0 0 0-4.332-2.77 4.779 4.779 0 0 0-4.331 2.77 11.145 11.145 0 0 0-1.23 5.38l.013.013zm27.809-9.774a4.62 4.62 0 0 1 3.206 1.086 5.691 5.691 0 0 1 1.56 4.467 6.075 6.075 0 0 1-1.486 4.32 3.606 3.606 0 0 1-2.642 1.233h-5.21v8.194h-2.028v-19.3h6.6zm.601 9.194c.332 0 .738-.272 1.23-.803a4.207 4.207 0 0 0 .92-2.813 3.822 3.822 0 0 0-1.08-2.777 2.453 2.453 0 0 0-1.684-.802h-4.547v7.256l5.161-.061z" fill="#3A4E5D" fill-rule="nonzero"/><path fill="#3A4E5D" d="M261.504 80.682h-2.04V61.369h2.04v15.438l8.073-15.438h2.015v19.313h-2.015v-15.45z"/><path d="M294.067 85.149h-2.015v-4.467h-10.654v4.467h-2.04v-6.405h1.328a33.538 33.538 0 0 0 1.941-8.54c.414-2.926.628-5.879.64-8.835h9.436v17.375h1.315l.05 6.405zm-3.342-21.843h-5.444a53.444 53.444 0 0 1-.75 8.182 32.297 32.297 0 0 1-1.744 7.256h7.938V63.306z" fill="#3A4E5D" fill-rule="nonzero"/><path fill="#3A4E5D" d="M303.726 80.682h-2.04V61.369h2.04v15.438l8.073-15.438h2.028v19.313h-2.028v-15.45zm24.552-9.428a13.072 13.072 0 0 0 3.883-.543v-9.342h2.076v19.313h-2.027v-8.034a13.61 13.61 0 0 1-3.908.53c-2.458 0-4.043-.715-4.854-2.122a10.269 10.269 0 0 1-.823-4.837v-4.85h2.04v5.8c0 2.715 1.229 4.085 3.686 4.085m25.695-9.885v1.937h-8.921v6.356h8.577v1.937h-8.577v7.133h9.29v1.95h-11.306V61.369zm14.832 1.641a4.217 4.217 0 0 0-3.933 2.937 14.558 14.558 0 0 0 0 10.453 4.217 4.217 0 0 0 3.933 2.937 3.685 3.685 0 0 0 3.194-1.963 9.9 9.9 0 0 0 1.34-3.776h2.089a10.884 10.884 0 0 1-2.335 5.714c-.497.51-1.08.927-1.72 1.234a5.952 5.952 0 0 1-2.691.679 5.86 5.86 0 0 1-5.37-3.48 13.82 13.82 0 0 1-1.5-6.615c-.066-2.32.45-4.62 1.5-6.688a5.86 5.86 0 0 1 5.37-3.443c.94.017 1.862.258 2.69.703.647.299 1.23.717 1.721 1.234a10.422 10.422 0 0 1 2.04 4.295h-2.114c-.897-2.876-2.31-4.32-4.214-4.32m16.601 17.771h-2.028V61.369h2.028v8.293h1.216l6.624-8.293 2.384.012-7.324 9.132 7.68 10.169h-2.593l-6.795-9.083h-1.192z"/><path d="M401.822 80.682l5.726-19.313h2.458l5.542 19.313h-2.286l-1.61-5.936h-5.935l-1.732 5.936h-2.163zm9.278-7.873l-2.335-8.429-2.58 8.429h4.915zm11.845-5.961a6.19 6.19 0 0 1 1.119-4.097 4.903 4.903 0 0 1 3.895-1.382h6.537v19.313h-1.954v-8.293h-3.023l-5.406 8.293h-2.347l5.517-8.453a4.91 4.91 0 0 1-3.207-1.815 5.669 5.669 0 0 1-1.07-3.566m4.916 3.591h4.62v-7.133h-4.559a2.953 2.953 0 0 0-1.916.642 3.427 3.427 0 0 0-1.02 2.764 4.537 4.537 0 0 0 .663 2.58 2.54 2.54 0 0 0 2.249 1.147" fill="#3A4E5D" fill-rule="nonzero"/><path fill="#3A4E5D" d="M213.285 109.028h-2.04V89.715h2.04v8.293h1.204l6.624-8.293 2.396.025-7.324 9.131 7.668 10.157h-2.58l-6.808-9.07h-1.18z"/><path d="M245.271 99.526a12.629 12.629 0 0 1-1.757 6.774 6.802 6.802 0 0 1-5.797 3.348 6.801 6.801 0 0 1-5.852-3.249 12.12 12.12 0 0 1-1.819-6.75 12.852 12.852 0 0 1 1.745-6.861 6.802 6.802 0 0 1 5.84-3.397 6.802 6.802 0 0 1 5.883 3.323 12.616 12.616 0 0 1 1.757 6.812m-13.16 0a11.145 11.145 0 0 0 1.228 5.38 4.766 4.766 0 0 0 4.301 2.721 4.766 4.766 0 0 0 4.301-2.721 12.512 12.512 0 0 0 0-10.76 4.766 4.766 0 0 0-4.3-2.722 4.766 4.766 0 0 0-4.302 2.721 11.145 11.145 0 0 0-1.228 5.38" fill="#3A4E5D" fill-rule="nonzero"/><path fill="#3A4E5D" d="M255.053 93.355v15.673h-2.09V89.715h2.888l4.535 16.437 4.546-16.437h2.876v19.313h-2.09V93.355l-4.3 15.673h-2.077zm23.421-1.69v17.363h-2.04V89.715h12.128v19.313h-2.015V91.665z"/><path d="M295.91 109.028l5.715-19.313h2.457l5.579 19.313h-2.273l-1.635-5.936h-5.922l-1.733 5.936h-2.187zm9.278-7.837l-2.322-8.44-2.58 8.44h4.902z" fill="#3A4E5D" fill-rule="nonzero"/><path fill="#3A4E5D" d="M319.061 99.945v9.083h-2.027V89.715h2.027v8.293h8.074v-8.293h2.027v19.313h-2.027v-9.083zm20.89 9.083h-2.04V89.715h2.04v15.45l8.074-15.45h2.027v19.313h-2.027V93.59z"/><path d="M358.814 95.206a6.19 6.19 0 0 1 1.118-4.097 4.903 4.903 0 0 1 3.895-1.394h6.537v19.313h-2.015v-8.293h-3.023l-5.407 8.293h-2.334l5.517-8.441a4.91 4.91 0 0 1-3.22-1.864 5.669 5.669 0 0 1-1.068-3.566m4.915 3.591h4.583v-7.083h-4.546a2.843 2.843 0 0 0-1.917.641 3.39 3.39 0 0 0-1.032 2.765 4.593 4.593 0 0 0 .663 2.579 2.54 2.54 0 0 0 2.249 1.147" fill="#3A4E5D" fill-rule="nonzero"/></g></svg>