<svg width="16" height="16" xmlns="http://www.w3.org/2000/svg"><path d="M1.272 3.16c-.013.183.004.751.482 1.994l.016.044c.637 2.291 5.256 7.343 7.844 8.582 1.935.926 3.06 1.103 3.278 1.046.249-.1.976-.97 1.286-1.342.15-.18.285-.344.393-.463.09-.102.087-.16.086-.18-.006-.099-.098-.218-.155-.272l-2.6-1.764a1.169 1.169 0 0 0-.692-.003l-1.85 1.007-.26-.183C6.267 9.627 4.521 6.9 4.447 6.785l-.153-.242.126-.259c.027-.05.651-1.32.954-1.835.078-.132-.045-.538-.202-.796-.48-.742-1.366-2.033-1.674-2.295-.139-.119-.313-.027-.38.017-.772.668-1.663 1.515-1.846 1.784zm11.526 12.69c-.892 0-2.395-.561-3.625-1.15C6.36 13.355 1.521 8.037.793 5.498.36 4.37.179 3.486.27 2.938c.028-.17.087-.524 2.198-2.356l.028-.02C2.8.334 3.537.044 4.162.582c.51.436 1.651 2.182 1.875 2.526.075.123.656 1.117.216 1.862-.203.344-.585 1.1-.785 1.501.461.664 1.903 2.608 3.965 4.133l1.346-.728c.07-.03.713-.307 1.523-.014l.114.058 2.734 1.855c.05.041.485.426.525.991.017.235-.03.585-.343.936-.101.112-.229.266-.37.436-.735.878-1.292 1.515-1.769 1.661a1.364 1.364 0 0 1-.395.051z" fill="#1A1919" fill-rule="evenodd"/></svg>