<svg width="152" height="154" xmlns="http://www.w3.org/2000/svg"><g fill="none" fill-rule="evenodd"><path d="M76.164 151.905c-34.661-.196-62.655-28.35-62.655-63.01 0-.82 0-1.63.062-2.438h14.275c0 .396-.034.786-.056 1.177-.022.39 0 .842 0 1.26-.004 26.78 21.595 48.548 48.374 48.753v14.258z" fill="#9F856A"/><path d="M124.543 80.691c-4.2-24.486-26.146-41.895-50.946-40.414-24.8 1.481-44.518 21.379-45.774 46.191 0 .396-.033.787-.044 1.177-.011.39 0 .842 0 1.26 0 26.91 21.809 48.73 48.72 48.742m.005-89.833v6.351M52.342 55.66l3.736 5.147M37.414 76.214l6.04 1.963m-6.04 23.436l6.04-1.962m8.888 22.516l3.736-5.141M100.66 55.66l-3.736 5.147m-26.08 31.371a6.533 6.533 0 1 1 11.314-6.535m-23.308-6.39l11.124 6.262" stroke="#FFF" stroke-width="3" stroke-linecap="round" stroke-linejoin="round"/><path d="M76.487 151.905c-34.8 0-63.011-28.21-63.011-63.01 0-.82 0-1.63.061-2.438 1.102-28.64 21.395-52.93 49.383-59.108a2.454 2.454 0 0 0 1.573-3.736 13.773 13.773 0 0 1-2.153-6.797 14.168 14.168 0 1 1 28.322-.931 13.35 13.35 0 0 1-2.18 7.767 2.454 2.454 0 0 0 1.583 3.73c27.986 6.181 48.276 30.47 49.377 59.109.034.808.045 1.617.045 2.437v1.622c0 .541 0 .915-.045 1.36v.927M69.835 15.885a6.664 6.664 0 1 1 6.691 6.691" stroke="#FFF" stroke-width="3" stroke-linecap="round" stroke-linejoin="round"/><path stroke="#FFF" stroke-width="3" stroke-linecap="round" stroke-linejoin="round" d="M123.31 44.558l10.924-8.415 8.415 10.924-10.924 8.414m8.537-24.775l9.402 12.201M29.703 44.558l-10.924-8.415-8.415 10.924 10.924 8.414m-9.189-25.438L2.279 42.79m74.225 39.591V61.063m-5.66 55.64c0-19.442 15.76-35.203 35.202-35.203s35.203 15.76 35.203 35.203c0 19.441-15.76 35.202-35.203 35.202h-30.53"/><path stroke="#FFF" stroke-width="3" stroke-linecap="round" stroke-linejoin="round" d="M70.844 117.584h-5.582l5.91 12.016 5.912-12.016H75.21"/></g></svg>