<svg width="24" height="14" xmlns="http://www.w3.org/2000/svg"><path d="M20.042 7.979c.235-.453 1.088-1.735 1.73-2.699C23.645 2.462 24 1.861 24 1.5a.5.5 0 0 0-.5-.5H19a.5.5 0 0 0-.492.411C18.26 2.787 15.013 6.752 14.5 7c-.209 0-.5-.521-.5-1.5v-4l.003-.22c.008-.325.015-.662-.243-.926C13.431.018 12.922 0 11.5 0 8.92 0 8 .774 8 1.5c0 .276.177.492.454.492C8.46 1.995 9 2.356 9 4.5c0 .58 0 2.041-.135 2.488-1.263-.217-3.02-3.391-3.899-5.668A.498.498 0 0 0 4.5 1h-4a.497.497 0 0 0-.492.59C.561 4.611 6.913 14 11 14h2c1.06 0 1.143-1.148 1.198-1.909.052-.724.114-1.091.302-1.091.621 0 1.885 1.098 2.722 1.824C18.162 13.64 18.593 14 19 14h2.5c1.286 0 2.5 0 2.5-1 0-.381-.333-.824-2.225-2.968-.635-.719-1.48-1.676-1.733-2.053" fill="#2D4E5F" fill-rule="evenodd"/></svg>